HIERARCHY
ROOT Hips
{
	OFFSET 0.000000 0.000000 0.000000 
	CHANNELS 6 Xposition Yposition Zposition Zrotation Yrotation Xrotation
	JOINT LeftUpLeg
	{
		OFFSET 1.363060 -1.794630 0.839290 
		CHANNELS 3 Zrotation Yrotation Xrotation
		JOINT LeftLeg
		{
			OFFSET 2.448110 -6.726130 0.000000 
			CHANNELS 3 Zrotation Yrotation Xrotation
			JOINT LeftFoot
			{
				OFFSET 2.562200 -7.039590 0.000000 
				CHANNELS 3 Zrotation Yrotation Xrotation
				JOINT LeftToeBase
				{
					OFFSET 0.157640 -0.433110 2.322550 
					CHANNELS 3 Zrotation Yrotation Xrotation
					End Site
					{
						OFFSET 0.000000 0.000000 0.000000 
					}
				}
			}
		}
	}
	JOINT RightUpLeg
	{
		OFFSET -1.305520 -1.794630 0.839290 
		CHANNELS 3 Zrotation Yrotation Xrotation
		JOINT RightLeg
		{
			OFFSET -2.542530 -6.985550 0.000000 
			CHANNELS 3 Zrotation Yrotation Xrotation
			JOINT RightFoot
			{
				OFFSET -2.568260 -7.056230 0.000000 
				CHANNELS 3 Zrotation Yrotation Xrotation
				JOINT RightToeBase
				{
					OFFSET -0.164730 -0.452590 2.363150 
					CHANNELS 3 Zrotation Yrotation Xrotation
					End Site
					{
						OFFSET 0.000000 0.000000 0.000000 
					}
				}
			}
		}
	}
	JOINT Spine
	{
		OFFSET 0.028270 2.035590 -0.193380 
		CHANNELS 3 Zrotation Yrotation Xrotation
		JOINT Spine1
		{
			OFFSET 0.056720 2.048850 -0.042750 
			CHANNELS 3 Zrotation Yrotation Xrotation
			JOINT Neck1
			{
				OFFSET -0.054170 1.746240 0.172020 
				CHANNELS 3 Zrotation Yrotation Xrotation
				JOINT Head
				{
					OFFSET 0.104070 1.761360 -0.123970 
					CHANNELS 3 Zrotation Yrotation Xrotation
					End Site
					{
						OFFSET 0.000000 0.000000 0.000000 
					}
				}
			}
			JOINT LeftArm
			{
				OFFSET 3.362410 1.200890 -0.311210 
				CHANNELS 3 Zrotation Yrotation Xrotation
				JOINT LeftForeArm
				{
					OFFSET 4.983000 -0.000000 -0.000000 
					CHANNELS 3 Zrotation Yrotation Xrotation
					JOINT LeftHand
					{
						OFFSET 3.483560 -0.000000 -0.000000 
						CHANNELS 3 Zrotation Yrotation Xrotation
						JOINT LeftHandIndex1
						{
							OFFSET 0.715260 -0.000000 -0.000000 
							CHANNELS 3 Zrotation Yrotation Xrotation
							End Site
							{
								OFFSET 0.000000 0.000000 0.000000 
							}
						}
					}
				}
			}
			JOINT RightArm
			{
				OFFSET -3.136600 1.374050 -0.404650 
				CHANNELS 3 Zrotation Yrotation Xrotation
				JOINT RightForeArm
				{
					OFFSET -5.241900 -0.000000 -0.000000 
					CHANNELS 3 Zrotation Yrotation Xrotation
					JOINT RightHand
					{
						OFFSET -3.444170 -0.000000 -0.000000 
						CHANNELS 3 Zrotation Yrotation Xrotation
						JOINT RightHandIndex1
						{
							OFFSET -0.622530 -0.000000 -0.000000 
							CHANNELS 3 Zrotation Yrotation Xrotation
							End Site
							{
								OFFSET 0.000000 0.000000 0.000000 
							}
						}
					}
				}
			}
		}
	}
}
MOTION
Frames: 15
Frame Time: 0.041667
1.767327 22.116962 1.403623 -178.455638 21.700800 -169.253632 7.360668 -15.725784 -49.989452 5.386911 18.305684 46.399194 2.194182 13.801967 30.194787 0.093500 1.972600 5.429800 11.009613 -2.437112 16.508963 -8.134031 -12.735504 52.627095 -0.796191 -16.627756 24.601136 -0.046300 1.388400 -3.818200 -2.065369 14.596167 -3.347176 -5.712155 8.078606 9.299203 6.374936 -6.541216 15.488680 0.290400 -3.311900 27.918100 -41.241089 34.767660 65.255852 62.676283 -59.559731 -36.894186 0.903268 -1.102986 12.439684 -7.125000 0.000000 0.000000 66.335299 16.951950 45.684499 -99.543972 57.676175 -59.839016 0.054007 -0.363412 6.230003 7.125000 0.000000 0.000000 
1.749644 22.120892 1.002588 -178.108892 22.038969 -169.350571 6.837202 -15.634307 -47.602755 4.207708 17.149131 42.272957 2.497450 14.347041 31.642105 0.096900 2.007000 5.525000 10.461749 -2.139088 16.373588 -8.876440 -13.203700 55.474149 -0.766761 -15.741288 23.726696 -0.047900 1.411900 -3.883000 -2.008923 14.771228 -3.326041 -5.408091 8.117524 9.489376 6.387613 -6.606562 15.647405 0.263600 -3.368200 28.029700 -41.114468 35.332727 66.010871 63.595618 -59.887603 -37.653723 0.917620 -1.130807 12.715073 -7.125000 0.000000 0.000000 67.089885 16.105017 45.775470 -98.692585 57.969999 -58.880928 0.047230 -0.359591 6.733392 7.125000 0.000000 0.000000 
1.730869 22.110522 0.600134 -177.715574 22.380198 -169.436422 6.394781 -15.528857 -45.180283 3.138207 15.916213 38.226978 2.811434 14.956045 33.125227 0.100300 2.041900 5.621500 9.941241 -1.819670 16.266595 -9.617099 -13.627234 58.255740 -0.728383 -14.953371 22.814072 -0.052600 1.479700 -4.069800 -1.945928 14.931969 -3.308189 -5.107888 8.150234 9.664988 6.380275 -6.660496 15.796527 0.200500 -3.411100 28.127400 -41.014998 35.946296 66.697593 64.559115 -60.220696 -38.446023 0.934185 -1.159274 13.079313 -7.125000 0.000000 0.000000 67.853365 15.156429 45.814161 -97.896422 58.251798 -57.994951 0.040173 -0.352183 7.198033 7.125000 0.000000 0.000000 
1.710894 22.085198 0.196588 -177.268222 22.719333 -169.498839 6.049641 -15.420641 -42.746363 2.188022 14.623945 34.277685 3.145973 15.626773 34.696460 0.104200 2.081000 5.729600 9.455599 -1.475868 16.165923 -10.357268 -14.011297 60.982227 -0.683855 -14.245362 21.871415 -0.059200 1.569400 -4.316900 -1.876839 15.069155 -3.295079 -4.811107 8.172068 9.825766 6.367068 -6.697127 15.938862 0.134100 -3.450900 28.216300 -40.938020 36.638189 67.314174 65.615526 -60.569949 -39.313303 0.951389 -1.187428 13.439000 -7.125000 0.000000 0.000000 68.622142 14.122573 45.811138 -97.137529 58.523830 -57.160973 0.036993 -0.343083 7.580520 7.125000 0.000000 0.000000 
1.689827 22.044702 -0.208049 -176.770080 23.061764 -169.528665 5.807599 -15.328617 -40.313526 1.367519 13.293793 30.442072 3.488882 16.500667 36.353159 0.109300 2.131300 5.868800 8.994417 -1.103532 16.052185 -11.098769 -14.360191 63.663355 -0.635655 -13.587096 20.904880 -0.069500 1.700800 -4.679400 -1.803043 15.185551 -3.284585 -4.537523 8.186851 9.994985 6.327803 -6.732280 16.087585 0.012800 -3.475100 28.351800 -40.876747 37.389484 67.848516 66.765879 -60.932597 -40.255161 0.970191 -1.214493 13.778835 -7.125000 0.000000 0.000000 69.402267 13.038347 45.763455 -96.384672 58.792302 -56.347206 0.036948 -0.334451 7.863968 7.125000 0.000000 0.000000 
1.666904 21.988814 -0.613560 -176.238759 23.405057 -169.531132 5.658498 -15.285741 -37.894378 0.682051 11.952380 26.744944 3.828532 17.671999 38.081071 0.117100 2.206000 6.075300 8.528384 -0.703770 15.916298 -11.843057 -14.675516 66.305183 -0.583156 -12.953179 19.896922 -0.082000 1.847400 -5.084100 -1.728259 15.280012 -3.277421 -4.295158 8.195428 10.165293 6.281347 -6.742673 16.219131 -0.119300 -3.483500 28.465800 -40.821912 38.193283 68.314153 67.983921 -61.299788 -41.250820 0.989129 -1.240192 14.067200 -7.125000 0.000000 0.000000 70.189686 11.910463 45.656029 -95.626072 59.057461 -55.543750 0.041853 -0.328635 8.062879 7.125000 0.000000 0.000000 
1.642126 21.918191 -1.020380 -175.695068 23.753605 -169.501043 5.595701 -15.333162 -35.503184 0.132941 10.628667 23.208105 4.132325 19.313261 39.813302 0.130800 2.331600 6.422900 8.028987 -0.268684 15.731035 -12.590674 -14.959883 68.911129 -0.526150 -12.325402 18.835246 -0.098000 2.019000 -5.558100 -1.652930 15.350190 -3.270688 -4.069922 8.193746 10.348261 6.248440 -6.711489 16.357007 -0.231800 -3.480400 28.576600 -40.779316 39.038673 68.705317 69.279641 -61.674604 -42.309628 1.007148 -1.264686 14.295462 -7.125000 0.000000 0.000000 70.978694 10.754569 45.476018 -94.840530 59.324409 -54.732520 0.049094 -0.327424 8.195680 7.125000 0.000000 0.000000 
1.615274 21.832395 -1.427964 -175.141424 24.094472 -169.444601 5.620172 -15.518536 -33.145152 -0.288642 9.348287 19.855521 4.379413 21.436368 41.491851 0.149900 2.494700 6.875000 7.496150 0.198783 15.515055 -13.339679 -15.213553 71.478491 -0.462476 -11.714309 17.693287 -0.119100 2.225000 -6.127800 -1.578438 15.391920 -3.264799 -3.872419 8.180513 10.532083 6.242275 -6.666000 16.523269 -0.306900 -3.484900 28.731700 -40.743083 39.919316 69.034359 70.622153 -62.048801 -43.404748 1.024394 -1.287454 14.479257 -7.125000 0.000000 0.000000 71.764747 9.585049 45.217125 -94.000942 59.596207 -53.889053 0.058119 -0.333795 8.296370 7.125000 0.000000 0.000000 
1.586675 21.731755 -1.836094 -174.603189 24.424392 -169.375293 5.720468 -15.900909 -30.818750 -0.598987 8.132410 16.703592 4.532280 24.060356 43.010640 0.177700 2.715700 7.488200 6.921743 0.707191 15.272236 -14.088918 -15.437661 74.005358 -0.396849 -11.103031 16.497514 -0.141800 2.427200 -6.687700 -1.502886 15.401146 -3.260780 -3.685680 8.151878 10.704789 6.256139 -6.582823 16.690304 -0.347900 -3.486100 28.885800 -40.731517 40.829723 69.306099 71.997828 -62.416891 -44.521407 1.040337 -1.307915 14.628553 -7.125000 0.000000 0.000000 72.536698 8.394345 44.863911 -93.112935 59.867454 -53.025413 0.066839 -0.344320 8.467771 7.125000 0.000000 0.000000 
1.556221 21.616378 -2.244115 -174.085248 24.729841 -169.306589 5.892680 -16.544970 -28.516931 -0.820077 6.994265 13.766379 4.557428 27.126247 44.271179 0.212300 2.966500 8.185500 6.314083 1.253204 15.014127 -14.837751 -15.633452 76.494070 -0.329702 -10.469602 15.234030 -0.170200 2.658100 -7.328100 -1.426133 15.374420 -3.260253 -3.514790 8.107185 10.847415 6.285483 -6.484363 16.868785 -0.363800 -3.494600 29.054400 -40.733999 41.773943 69.535130 73.422495 -62.779302 -45.670392 1.055705 -1.326173 14.741963 -7.125000 0.000000 0.000000 73.296074 7.149853 44.417105 -92.250043 60.124257 -52.208871 0.075336 -0.357440 8.610695 7.125000 0.000000 0.000000 
1.524348 21.486593 -2.651809 -173.612847 25.006066 -169.257861 6.102207 -17.488455 -26.230609 -0.976007 5.938857 11.049237 4.409683 30.589074 45.165035 0.253400 3.238700 8.943900 5.659013 1.833359 14.757239 -15.586274 -15.800271 78.947486 -0.264089 -9.791918 13.911758 -0.203300 2.903600 -8.010400 -1.345980 15.303155 -3.260907 -3.350364 8.041496 10.959818 6.312662 -6.353818 17.041705 -0.380200 -3.496100 29.209400 -40.811051 42.734805 69.672414 74.813286 -63.122489 -46.780237 1.071394 -1.342451 14.892546 -7.125000 0.000000 0.000000 74.040657 5.865320 43.869071 -91.442345 60.359605 -51.468305 0.083571 -0.367379 8.795905 7.125000 0.000000 0.000000 
1.491383 21.341963 -3.057756 -173.194926 25.250920 -169.244776 6.293164 -18.678086 -23.976587 -1.090899 4.963974 8.566449 4.087864 34.254197 45.686019 0.300600 3.525000 9.744000 4.976192 2.459588 14.517075 -16.335762 -15.938597 81.374997 -0.199623 -9.102009 12.519078 -0.235400 3.122400 -8.619800 -1.262634 15.191093 -3.268342 -3.188592 7.957242 11.004947 6.337063 -6.211252 17.211107 -0.398500 -3.502600 29.380700 -40.936072 43.726141 69.756864 76.184255 -63.445418 -47.862726 1.086433 -1.357693 15.053413 -7.125000 0.000000 0.000000 74.770193 4.482547 43.236455 -90.761263 60.560740 -50.861244 0.091009 -0.377140 8.982308 7.125000 0.000000 0.000000 
1.457654 21.182160 -3.461738 -172.826398 25.447044 -169.261677 6.405801 -19.992352 -21.801208 -1.182062 4.067671 6.330143 3.597400 38.004744 45.860614 0.354000 3.822600 10.578200 4.282011 3.113641 14.284940 -17.088098 -16.049357 83.787040 -0.139315 -8.415247 11.075427 -0.268000 3.330000 -9.198800 -1.177502 15.034055 -3.282021 -3.046612 7.854738 10.997589 6.353013 -6.074223 17.372348 -0.433700 -3.511800 29.579400 -41.117347 44.719811 69.764767 77.539604 -63.746402 -48.920563 1.101804 -1.372251 15.215850 -7.125000 0.000000 0.000000 75.500638 3.007932 42.511640 -90.233843 60.727086 -50.404875 0.099335 -0.387262 9.233008 7.125000 0.000000 0.000000 
1.423380 21.006966 -3.863428 -172.492118 25.561760 -169.309854 5.370111 -18.799763 -20.381517 -1.307762 3.235481 4.475363 3.442319 38.789081 46.035024 0.411700 4.118800 11.411100 3.595213 3.776366 14.058592 -17.843529 -16.133725 86.189651 -0.084041 -7.773874 9.583754 -0.298500 3.512800 -9.709800 -1.088071 14.819996 -3.301113 -2.923050 7.725743 10.957364 6.349434 -5.936296 17.501386 -0.507400 -3.506200 29.775100 -41.395710 45.708060 69.656279 78.811875 -64.018943 -49.899850 1.117992 -1.385980 15.437646 -7.125000 0.000000 0.000000 76.214304 1.466681 41.702090 -89.844989 60.860580 -50.084391 0.107748 -0.402064 9.561064 7.125000 0.000000 0.000000 
1.388559 20.816928 -4.262280 -172.198524 25.613608 -169.365488 4.435570 -17.720878 -19.202971 -1.406326 2.593051 3.058827 3.302867 39.625197 46.176893 0.468200 4.388700 12.172900 2.907766 4.432083 13.818586 -18.604425 -16.187863 88.592719 -0.035861 -7.217273 8.066669 -0.339800 3.746100 -10.363500 -0.995716 14.549940 -3.324428 -2.810967 7.574598 10.895450 6.341112 -5.786706 17.610835 -0.591800 -3.491600 29.965700 -41.798060 46.677692 69.405882 79.995888 -64.267304 -50.799597 1.132556 -1.398323 15.673882 -7.125000 0.000000 0.000000 76.912036 -0.129092 40.802596 -89.586947 60.965516 -49.890518 0.113432 -0.427922 9.943239 7.125000 0.000000 0.000000 
